<svg viewBox="0 0 962 300" xmlns="http://www.w3.org/2000/svg" font-family="Helvetica, Arial, sans-serif">
  <rect width="962" height="300" fill="#fffdf7"/>

  <rect x="187" y="20" width="256" height="80" rx="10" fill="#e6e1f7" stroke="#8f7bd1" stroke-width="1.5"/>
  <text x="315" y="52" text-anchor="middle" font-size="15" font-weight="bold" fill="#4a3792">Poetry</text>
  <text x="315" y="72" text-anchor="middle" font-size="12" fill="#4a3792">Resolver + lockfile</text>

  <rect x="469" y="20" width="258" height="80" rx="10" fill="#e6e1f7" stroke="#8f7bd1" stroke-width="1.5"/>
  <text x="598" y="52" text-anchor="middle" font-size="15" font-weight="bold" fill="#4a3792">uv</text>
  <text x="598" y="72" text-anchor="middle" font-size="12" fill="#4a3792">Resolver + lockfile (Rust)</text>

  <line x1="315" y1="100" x2="315" y2="138" stroke="#8a8a8a" stroke-width="1.5" marker-end="url(#arrow)"/>
  <line x1="598" y1="100" x2="598" y2="138" stroke="#8a8a8a" stroke-width="1.5" marker-end="url(#arrow)"/>

  <rect x="187" y="138" width="540" height="70" rx="10" fill="#dbe8f7" stroke="#5f8fc4" stroke-width="1.5"/>
  <text x="457" y="167" text-anchor="middle" font-size="15" font-weight="bold" fill="#204a75">pip</text>
  <text x="457" y="187" text-anchor="middle" font-size="12" fill="#204a75">Installation layer, no resolver guarantee</text>

  <line x1="457" y1="208" x2="457" y2="236" stroke="#8a8a8a" stroke-width="1.5" marker-end="url(#arrowSmall)"/>

  <rect x="187" y="236" width="540" height="70" rx="10" fill="#eae7de" stroke="#a89f8c" stroke-width="1.5"/>
  <text x="457" y="265" text-anchor="middle" font-size="15" font-weight="bold" fill="#4a4437">PyPI</text>
  <text x="457" y="285" text-anchor="middle" font-size="12" fill="#4a4437">Package index</text>

  <defs>
    <marker id="arrow" markerWidth="8" markerHeight="8" refX="4" refY="4" orient="auto">
      <path d="M0,0 L8,4 L0,8 Z" fill="#8a8a8a"/>
    </marker>
    <marker id="arrowSmall" markerWidth="6" markerHeight="6" refX="3" refY="3" orient="auto">
      <path d="M0,0 L6,3 L0,6 Z" fill="#8a8a8a"/>
    </marker>
  </defs>
</svg>
